<svg xmlns="http://www.w3.org/2000/svg" viewBox="0 0 110.74 67.66"><title>Asset 2</title><g id="Layer_2" data-name="Layer 2"><g id="Layer_1-2" data-name="Layer 1"><path d="M104,7.91C91.78,26.64,65.76,67.58,58,67.58c-2.88,0-9.75-5.77-9.75-10.09-4.91,6.1-9.32,10.17-12,10.17-3,.08-8.73-5.85-8.73-10.17,0-7.2,16.52-40.25,24.32-50.25C41.7,7.83,6.7,25.63,6.7,43c0,2.88,2.11,2.37,1.35,3.73-1.1,1.61-8-2.8-8-8.14C0,20.79,36.78,1.22,51.87,1.22c3.22,0,6.77,3.3,8.3,5.42.68.6.93,1.36.59,1.78-9.23,15.76-20.34,39.32-23,49.15,6.27-5,10.93-9.32,22.71-29.57,7.63-13.65,16-26.19,17.37-26.19,2,0,6.53,3.56,5.34,5.43C74.15,23.17,64.58,34.61,58.48,57.57c6.27-5,29.23-37,40.93-57.28A.36.36,0,0,1,99.92,0C101.7.12,105.59,5.37,104,7.91Z"/><circle cx="98.74" cy="55.66" r="12"/></g></g></svg>